/* XPM */
static char *b5c484e3917b4861cd7f12e3a310a218BdzXdnrle9Nzva3m[] = {
/* columns rows colors chars-per-pixel */
"32 32 15 1 ",
"  c None",
". c #2F2F2E",
"X c #32322F",
"o c #3B3B39",
"O c #624023",
"+ c #69483A",
"@ c #916451",
"# c #B37C64",
"$ c #B29D62",
"% c #E59363",
"& c #D2BA77",
"* c #B4B4AE",
"= c #FFD19C",
"- c #DAD9CC",
"; c #F1F0FD",
/* pixels */
"                                ",
"                                ",
"                                ",
"                                ",
"                                ",
"                                ",
"                                ",
"              ......            ",
"             .#+@+++.           ",
"             .@@@++++.          ",
"            .+@@@oooo..         ",
"           ..oooo+++..@.        ",
"          .+@@@@@@@.%%..        ",
"          .#######...==.        ",
"          ........++.%=.        ",
"            ..;%.;;%.+=.        ",
"            .=====%.@++.        ",
"            .%%%%%%.@+.         ",
"        .. ..-====.@++.         ",
"       .=%.@@+-=--.@+.          ",
"       .==@@@+****@@+.          ",
"        ..@+++-*-*@+.           ",
"          ...+-*-*@+.           ",
"            .+-*-*@+X           ",
"            .+....++X           ",
"             .+&&&&X.           ",
"             .O$$$.+.           ",
"              ......            ",
"                                ",
"                                ",
"                                ",
"                                "
};
