/* XPM */
static char *_f7729eb3faa4566c9786c20c3238a01NPNNbDiD5tbNSbrR[] = {
/* columns rows colors chars-per-pixel */
"32 32 16 1 ",
"  c None",
". c #2F2F2E",
"X c #32322F",
"o c #3B3B39",
"O c #624023",
"+ c #69483A",
"@ c #916451",
"# c #B37C64",
"$ c #B29D62",
"% c #E59363",
"& c #D2BA77",
"* c #9299A4",
"= c #B4B4AE",
"- c #FFD19C",
"; c #DAD9CC",
": c #F1F0FD",
/* pixels */
"                                ",
"                                ",
"                                ",
"                                ",
"                                ",
"                                ",
"              ......            ",
"             .#+@+++.           ",
"             .@@@++++.          ",
"            .+@@@oooo..         ",
"           ..oooo+++..@.        ",
"          .#######@.%%..        ",
"          ...........--.        ",
"            .++%++++.%-.        ",
"            ..:%.::%.+-.        ",
"            .-----%.@++.        ",
"            .%%%%%%.@+.         ",
"            .;----.@++.         ",
"           .@+;-;;.@+.          ",
"          .@@+====@@+.          ",
"          .@++;=;=@+.           ",
"         .--.+;=;=@+.           ",
"         .-%.+;=;=@+X           ",
"         .-..+***o++X           ",
"          . .&&&&&&$X           ",
"            .&&$.&&$.           ",
"            .+O. .+O.           ",
"             ..   ..            ",
"                                ",
"                                ",
"                                ",
"                                "
};
