/* XPM */
static char *_9cf989ef12a4ed3ebc5bd38a5d709c8vq4FgK3RXxLm8CbV[] = {
/* columns rows colors chars-per-pixel */
"25 16 5 1 ",
"  c None",
". c #2F2F2E",
"X c #71C5FF",
"o c #71DBFF",
"O c #A2FCFF",
/* pixels */
"                         ",
"                         ",
"          .....          ",
"         .XoooX.         ",
"        .XOooooX.        ",
"       .XOOOooooX.       ",
"      .XOOOooooooX.      ",
"     .XOOOooooooooX.     ",
"     .ooOoooooooooo.     ",
"     .ooooooooooooo.     ",
"     .XoooXXXXXoooX.     ",
"      .XoXXXXXXXoX.      ",
"       .XXXXXXXXX.       ",
"        .........        ",
"                         ",
"                         "
};
