/* XPM */
static char *bd9c55bf8efa48fcc3cefa15abf6e0dc325bkKeYRqWhPwNc[] = {
/* columns rows colors chars-per-pixel */
"25 16 6 1 ",
"  c None",
". c #2F2F2E",
"X c #49A5F7",
"o c #71C5FF",
"O c #71DBFF",
"+ c #A2FCFF",
/* pixels */
"                         ",
"                         ",
"                         ",
"         .......         ",
"       ..ooOOOOo..       ",
"      .oo++OOOOOoo.      ",
"     .o+++++OOOOOOo.     ",
"    .o+++++OOOOOOOOo.    ",
"   .OO+++OOOOOOOOOOOO.   ",
"   .OOOoooooooooooOOO.   ",
"   .oOoXXXXXXXXXXXoOo.   ",
"    .oXXXXXXXXXXXXXo.    ",
"     .oXXXXXXXXXXXo.     ",
"      .............      ",
"                         ",
"                         "
};
