/* XPM */
static char *_e68e48502d44113a39571f38abdb6e4VB7ap0Ntldv1mMn2[] = {
/* columns rows colors chars-per-pixel */
"25 16 6 1 ",
"  c None",
". c #2F2F2E",
"X c #49A5F7",
"o c #71C5FF",
"O c #71DBFF",
"+ c #A2FCFF",
/* pixels */
"                         ",
"                         ",
"          .....          ",
"        ..oOOOo..        ",
"       .o++OOOOOo.       ",
"      .o++++OOOOOo.      ",
"     .o++++OOOOOOOo.     ",
"    .o++++OOOOOOOOOo.    ",
"    .OO++OOOOOOOOOOO.    ",
"    .OOOoooooooooOOO.    ",
"    .oOoXXXXXXXXXoOo.    ",
"     .oXXXXXXXXXXXo.     ",
"      .oXXXXXXXXXo.      ",
"       ...........       ",
"                         ",
"                         "
};
