/* XPM */
static char *c40cde323a4246edd1b39ae861330c6ayfb1QR1vVjOTUPOT[] = {
/* columns rows colors chars-per-pixel */
"32 32 4 1 ",
"  c None",
". c #5F5226",
"X c #D7B84D",
"o c #FDE07E",
/* pixels */
"                                ",
"                                ",
"                                ",
"                                ",
"                                ",
"                                ",
"                                ",
"                                ",
"                                ",
"                                ",
"               ...              ",
"              .ooo.             ",
"              .XXX...           ",
"           .. ....ooo.          ",
"          .XX.ooo.XXX.          ",
"          .oo.XXX.ooo...        ",
"          ....ooo.XXX.oo.       ",
"       ....ooo.XX.ooo.XX.       ",
"      .ooo.XXX....XXX...        ",
"      .XXX.ooo.   ...           ",
"       ....XXX....   ...        ",
"           ....ooo. .ooo.       ",
"              .XXX. .XXX.       ",
"               ...   ...        ",
"                                ",
"                                ",
"                                ",
"                                ",
"                                ",
"                                ",
"                                ",
"                                "
};
