/* XPM */
static char *result[] = {
/* columns rows colors chars-per-pixel */
"16 16 5 1 ",
"  c #5F5226",
". c #D7B84D",
"X c #FDE07E",
"o c #F1F0FD",
"O c None",
/* pixels */
"OOOOOOOOOOOOOOOO",
"OOOOOOOOOOOOOOOO",
"OOOOOOOOOOOOOOOO",
"OOOOOOOOOOOOOOOO",
"OOOOOOOOOOOOOOOO",
"OOOOOoo OOOOOOOO",
"OOOO ooX     OOO",
"OOOO .oo.XX. OOO",
"OOOO .oo   . OOO",
"OOOO .oo OO  OOO",
"OOOOO  oOOOOOOOO",
"OOOOOOOOOOOOOOOO",
"OOOOOOOOOOOOOOOO",
"OOOOOOOOOOOOOOOO",
"OOOOOOOOOOOOOOOO",
"OOOOOOOOOOOOOOOO"
};
