/* XPM */
static char *result[] = {
/* columns rows colors chars-per-pixel */
"16 16 5 1 ",
"  c #5F5226",
". c #D7B84D",
"X c #FDE07E",
"o c #F1F0FD",
"O c None",
/* pixels */
"OOOOOOOOOOOOOOOO",
"OOOOOOOOOOOOOOOO",
"OOOOOOOOOOOOOOOO",
"OOOOOOOOOOOOOOOO",
"OOOOOOOOOOOOOOOO",
"OOOOO   OOOOOOOO",
"OOOO .XX   ooOOO",
"OOOO . X.XX.oOOO",
"OOOO . X   . OOO",
"OOOO .XX OO  OOO",
"OOOOO   OOOOOOOO",
"OOOOOOOOOOOOOOOO",
"OOOOOOOOOOOOOOOO",
"OOOOOOOOOOOOOOOO",
"OOOOOOOOOOOOOOOO",
"OOOOOOOOOOOOOOOO"
};
