/* XPM */
static char *result[] = {
/* columns rows colors chars-per-pixel */
"32 32 3 1 ",
"  c #494949",
". c #5A5A59",
"X c #696967",
/* pixels */
"                                ",
".XXXXXXXXXXXXXXXXXX...XX..X.... ",
"X.............................. ",
"X.............................. ",
"X..  . ........................ ",
"...  ...........XX............. ",
"................XX............. ",
"....................    ....... ",
"..............X.....    ....... ",
"X....................   ....... ",
"X.............................. ",
"X..... ........................ ",
"X....  ........................ ",
"X....  .......................  ",
"X............................   ",
"X............................   ",
"X...........................    ",
"..........X ................    ",
"..........X  .............. X.  ",
"....... ..X  .............. ... ",
"X......................... X... ",
".......................... .... ",
"......................... X.... ",
"........................ X..... ",
".......................  ...... ",
"....   ..............  X. ..... ",
"....   ............. X.... .... ",
"............  ..... X..... .    ",
"............  .... X.......     ",
".................. X.......     ",
"X.............. . X.......      ",
"X................ X.......      "
};
