/* XPM */
static char *result[] = {
/* columns rows colors chars-per-pixel */
"32 32 46 1 ",
"  c #4E2F1B",
". c #502F1B",
"X c #4F311D",
"o c #50311D",
"O c #4E3420",
"+ c #533623",
"@ c #543825",
"# c #593A25",
"$ c #533D2C",
"% c #5B3E2A",
"& c #5E412D",
"* c #534A3E",
"= c #60442F",
"- c #614531",
"; c #634936",
": c #654D39",
"> c #68513E",
", c #5E5446",
"< c #605647",
"1 c #605748",
"2 c #635A4C",
"3 c #665D52",
"4 c #73654E",
"5 c #6B6354",
"6 c #6A6258",
"7 c #6F6858",
"8 c #736650",
"9 c #726A5A",
"0 c #786F5F",
"q c #77715E",
"w c #78725F",
"e c #777060",
"r c #7A7563",
"t c #7D7867",
"y c #7F7868",
"u c #837E6D",
"i c #86806F",
"p c #878272",
"a c #898474",
"s c #8C8779",
"d c #8E897A",
"f c #908C7E",
"g c #918D81",
"h c #939087",
"j c #96948B",
"k c None",
/* pixels */
"kkkkkkkkkkkkkkkkkkkkkkkkkkkkkkkk",
"kkkkkkkkkkkkkkkkkkkkkkkkkkkkkkkk",
"kkkkkkkkkkkkkkkkkkkkkkkkkkkkkkkk",
"kkkkkkkkkkkkkk::::;;kkkkkkkkkkkk",
"kkkkkkkkkkk:::aippi<;-kkkkkkkkkk",
"kkkkkkkkkk:euwaapppp21-kkkkkkkkk",
"kkkkkkkkk:rw8faipppp22-kkkkkkkkk",
"kkkkkkkk-wuwfsaiappau22%kkkkkkkk",
"kkkkkkk=tttfsaaapsppp1,*%kkkkkkk",
"kkkkkk=tyyfssaaappspsy,**%kkkkkk",
"kkkkkk-88fssaaaapssspsg,*$kkkkkk",
"kkkkkk-48gssdaaaapspspsd**$kkkkk",
"kkkkk&44gsdsdsddaasasssg**$kkkkk",
"kkkkk%4fssdsdddddaadsssd,**$kkkk",
"kkkk%4fssddsssdddfdgssss****$kkk",
"kkkk=4ufsssdddffggddssg22***$kkk",
"kkk&4uiujdddffffggddhh2322**&kkk",
"kkk&uuuuijjjffffgdjjwq32221*&kkk",
"kk&tuuuuiiiijffjjjreq2222211&kkk",
"kk&uutuuiiiajjjtwrreq222>11,$kkk",
"kk&utuuuiiihttttrweq222,11,,Okkk",
"kk&58iuutiijttttteeq2222,,,,Okkk",
"kko5555iiidttttttt56222,,,,Okkkk",
"kkk@555555ttttttt5565,,,,,Xkkkkk",
"kkk@5555555ttttt656633,,,Xkkkkkk",
"kkkk@5555557tttt366322,,Xkkkkkkk",
"kkkk@55855599997666632XXkkkkkkkk",
"kkkkko33568959773532+okkkkkkkkkk",
"kkkkkk@@+oo7585563Xokkkkkkkkkkkk",
"kkkkkkkkkkkoooooXokkkkkkkkkkkkkk",
"kkkkkkkkkkkkkkkkkkkkkkkkkkkkkkkk",
"kkkkkkkkkkkkkkkkkkkkkkkkkkkkkkkk"
};
