/* XPM */
static char *b9b2fdc5bc9847178fe8a5cef1ba14a7ju36JdOL1hUvYbqb[] = {
/* columns rows colors chars-per-pixel */
"32 32 30 1 ",
"  c None",
". c #2F2F2E",
"X c #32322F",
"o c #3B3B39",
"O c #624023",
"+ c #69483A",
"@ c #484C47",
"# c #5C605B",
"$ c #916451",
"% c #B37C64",
"& c #FFA200",
"* c #B29D62",
"= c #E59363",
"- c #D2BA77",
"; c #919190",
": c #A89790",
"> c #BCA59C",
", c #9299A4",
"< c #B4B4AE",
"1 c #CDB1A5",
"2 c #FFD19C",
"3 c #CBC4BD",
"4 c #D0C9C2",
"5 c #D6CFC8",
"6 c #DAD9CC",
"7 c #E6D2C6",
"8 c #F2DCC1",
"9 c #ECE1D4",
"0 c #E6E6E6",
"q c #F1F0FD",
/* pixels */
"                                ",
"                                ",
"                                ",
"                                ",
"                                ",
"                                ",
"           ......               ",
"          .+++$+1.              ",
"         .++++$$>.              ",
"        ..oooo$>>:.             ",
"       .$+++++o;;;..            ",
"       ..$$$$$$>>>>:.           ",
"        .....%111111. . &&&     ",
"        .+=++.........5.000&&   ",
"        .+==qq.=q...#44.&00&    ",
"         .+==2228.53...  &&     ",
"          .+====.@#@4.          ",
"          .<6222.....9.         ",
"         .+.....$999..          ",
"         .+$$$$$+27..           ",
"         .++$+++...             ",
"          .+$...<:.             ",
"           X+$<6<6:.            ",
"           X++o,,,+.            ",
"          X*--------.           ",
"          .*--...*--.           ",
"          .O+.   .O+.           ",
"           ..     ..            ",
"                                ",
"                                ",
"                                ",
"                                "
};
