/* XPM */
static char *result[] = {
/* columns rows colors chars-per-pixel */
"22 23 5 1 ",
"  c #302C2E",
". c #F47E1B",
"X c #F4B41B",
"o c #DFF6F5",
"O c None",
/* pixels */
"OOOOOOOOOOOOOOOOOOOOOO",
"OOOOOOOOOOOOOOOoOOOOOO",
"OOOOOOOOOOOOOOOOOOOOOO",
"OOOOOOOOOOOOOOOOOOOOOO",
"OOOOOOOOOOOOOOOOOOOOOO",
"OOOOOOOOOOOOOOOOOOOOOO",
"OOOOOOOOOOoOOOOOOOOOoO",
"OOOOOOOOOOOOOOOOOOOOOO",
"OOOOOOOOOOOOOOOOOOOOOO",
"OOOOOO    OOOOOOOOOOOO",
"OOOOO oooX OOOOOOOOOOO",
"OOOO ooXXXX OOOoOOOOOO",
"OOO ooX  XX. OOOOOOOOO",
"OOO oX o. X. OOOOOOOOO",
"OOO oX o. X. OOOOOOOOO",
"OOO oX X. X. OOOOOOOOO",
"OOO XX X. X. OOOOOOOOO",
"OOO XX X. X. OOOOOOOOO",
"OOO XX .. X. OOOOOOOOO",
"OOO XXX  X.. OOOOOOOOO",
"OOOO XXXX.. OOOOOOOOOO",
"OOOOO .... OOOOOOOOOOO",
"OOOOOO    OOOOOOOOOOOO"
};
