/* XPM */
static char *result[] = {
/* columns rows colors chars-per-pixel */
"22 22 5 1 ",
"  c #302C2E",
". c #F47E1B",
"X c #F4B41B",
"o c #DFF6F5",
"O c None",
/* pixels */
"OOOOOOOOOOOOOOOOOOOOOO",
"OOOOOOOOOOOOOOOOOOOOOO",
"OOOOOOOOOOOOOoOOOoOOOO",
"OOOOOOOOOOOOOOoOoOOOOO",
"OOOOOOOOOOOOOOOoOOOOOO",
"OOOOOOOO    OOoOoOOOOO",
"OOOOOOO Xooo oOOOoOOOO",
"OOOOOOO XXXo OOOOOOOOO",
"OOOOOO .X  Xo OOOOOOOO",
"OOOOOO . .o o OOOOOOOO",
"OOOOOO . .o o OOOOOOOO",
"OOOOOO . .X o OOOOOOOO",
"OOOOOO . .X X OOOOOOOO",
"OOOOOO . .X X OOOOOOOO",
"OOOOOO . .. X OOOOOOOO",
"OOOOOO .X  XX OOOOOOOO",
"OOOOOOO .XXX OOOOOOOOO",
"OOOOOOO .... OOOOOOOOO",
"OOOOOOOO    OOOOOOOOOO",
"OOOOOOOOOOOOOOOOOOOOOO",
"OOOOOOOOOOOOOOOOOOOOOO",
"OOOOOOOOOOOOOOOOOOOOOO"
};
