/* XPM */
static char *result[] = {
/* columns rows colors chars-per-pixel */
"22 22 5 1 ",
"  c #302C2E",
". c #F47E1B",
"X c #F4B41B",
"o c #DFF6F5",
"O c None",
/* pixels */
"OOOOOOOOOOOOOOOOOOOOOO",
"OOOOOOOOOOOOOOOOOOOOOO",
"OOOOOOOOOOOOOOoOOOoOOO",
"OOOOOOOOOOOOOOOoOoOOOO",
"OOOOOOOOOOOOOOOOOOOOOO",
"OOOOOOOOOOOOOOOoOoOOOO",
"OOOOOOOOOOOOOOoOOOoOOO",
"OOOOOOO    OOOOOOOOOOO",
"OOOOOO oooX OOOOOOOOOO",
"OOOOOO oXXX OOOOOOOOOO",
"OOOOO oX  X. OOOOOOOOO",
"OOOOO o o. . OOOOOOOOO",
"OOOOO o o. . OOOOOOOOO",
"OOOOO o X. . OOOOOOOOO",
"OOOOO X X. . OOOOOOOOO",
"OOOOO X X. . OOOOOOOOO",
"OOOOO X .. . OOOOOOOOO",
"OOOOO XX  X. OOOOOOOOO",
"OOOOOO XXX. OOOOOOOOOO",
"OOOOOO .... OOOOOOOOOO",
"OOOOOOO    OOOOOOOOOOO",
"OOOOOOOOOOOOOOOOOOOOOO"
};
