/* XPM */
static char *d4355ae2f11946aff56df5b2282e74937M4HyJA8BVpySoSJ[] = {
/* columns rows colors chars-per-pixel */
"22 22 5 1 ",
"  c None",
". c #302C2E",
"X c #F47E1B",
"o c #F4B41B",
"O c #DFF6F5",
/* pixels */
"                      ",
"                      ",
"                      ",
"               O      ",
"         .... OOO     ",
"        .oOOO. O      ",
"       .ooooOO.       ",
"      .Xoo..oOO.      ",
"      .Xo.XO.oO.      ",
"      .Xo.XO.oO.      ",
"      .Xo.Xo.oO.      ",
"      .Xo.Xo.oo.      ",
"      .Xo.Xo.oo.      ",
"      .Xo.XX.oo.      ",
"      .XXo..ooo.      ",
"       .XXoooo.       ",
"        .XXXX.        ",
"         ....         ",
"                      ",
"                      ",
"                      ",
"                      "
};
