/* XPM */
static char *result[] = {
/* columns rows colors chars-per-pixel */
"22 22 5 1 ",
"  c #302C2E",
". c #F47E1B",
"X c #F4B41B",
"o c #DFF6F5",
"O c None",
/* pixels */
"OOOOOOOOOOOOOOOOOOOOOO",
"OOOOOOOOOOOOOOOoOOOOOO",
"OOOOOOOOOOOOOOOOOOOOOO",
"OOOOOOOOOOOOOOOoOOOOOO",
"OOOOOOOOOOOOOOOoOOOOOO",
"OOOOOOOOOOOoOoooooOoOO",
"OOOOOOOOOOOOOOOoOOOOOO",
"OOOOOOOO  OOOOOoOOOOOO",
"OOOOOOO Xo OOOOOOOOOOO",
"OOOOOOO Xo OOOOoOOOOOO",
"OOOOOOO .X OOOOOOOOOOO",
"OOOOOOO .X OOOOOOOOOOO",
"OOOOOOO .X OOOOOOOOOOO",
"OOOOOOO .X OOOOOOOOOOO",
"OOOOOOO .X OOOOOOOOOOO",
"OOOOOOO .X OOOOOOOOOOO",
"OOOOOOO .X OOOOOOOOOOO",
"OOOOOOO .X OOOOOOOOOOO",
"OOOOOOO .X OOOOOOOOOOO",
"OOOOOOO .. OOOOOOOOOOO",
"OOOOOOOO  OOOOOOOOOOOO",
"OOOOOOOOOOOOOOOOOOOOOO"
};
