/* XPM */
static char *_7912255ef754de4baf3b679adde20adOv65IIN7gBwm8lgK[] = {
/* columns rows colors chars-per-pixel */
"25 20 6 1 ",
"  c None",
". c #2F2F2E",
"X c #54443B",
"o c #7C4E2E",
"O c #99643E",
"+ c #B97F56",
/* pixels */
"                         ",
"                         ",
"     ...         ...     ",
"    .+++.       .+++.    ",
"    .oOO.       .oOO.    ",
"    .oOO.........oOO.    ",
"    .oOO++++++++++OO.    ",
"    .oOOOOOOOOOOOOOO.    ",
"    .oOO.........oOO.    ",
"    .oOO.........oOO.    ",
"  XX.oOO++++++++++OO.XX  ",
" XXX.oOOOOOOOOOOOOOO.XXX ",
"XXXX.oOO.........oOO.XXXX",
"XX...ooo.........ooo...XX",
" ....................... ",
"  .....................  ",
"    .................    ",
"       ...........       ",
"                         ",
"                         "
};
