/* XPM */
static char *c191a9af251143aacdf3a44d24e1487fOfeBZX0oFNWWZlDG[] = {
/* columns rows colors chars-per-pixel */
"26 13 2 1 ",
"  c None",
". c #2F2F2E",
/* pixels */
"                          ",
"                          ",
"       .............      ",
"    ...................   ",
"  ....................... ",
" ........................ ",
" ........................ ",
"  ....................... ",
"   .....................  ",
"     .................    ",
"        ...........       ",
"                          ",
"                          "
};
