/* XPM */
static char *result[] = {
/* columns rows colors chars-per-pixel */
"32 32 14 1 ",
"  c #2F2F2E",
". c #3B3B39",
"X c #624023",
"o c #69483A",
"O c #916451",
"+ c #B37C64",
"@ c #B29D62",
"# c #E59363",
"$ c #D2BA77",
"% c #B4B4AE",
"& c #FFD19C",
"* c #DAD9CC",
"= c #F1F0FD",
"- c None",
/* pixels */
"--------------------------------",
"--------------------------------",
"--------------------------------",
"--------------------------------",
"--------------------------------",
"--------------------------------",
"--------------------------------",
"------------      --------------",
"----------- oooOo+ -------------",
"---------- ooooOOO -------------",
"---------  ....OOOo ------------",
"-------- O  ooo....  -----------",
"--------  ## OOOOOOOo ----------",
"-------- &&   +++++++ ----------",
"-------- &# oo        ----------",
"-------- &o #== #=  ------------",
"-------- ooO #&&&&& ------------",
"--------- oO ###### ------------",
"--------- ooO &&&&* ------------",
"---------- oO **&*oO -----------",
"---------- oOO%%%%oO -----------",
"----------- oO%*%*oo -----------",
"----------- oO%*%*o ------------",
"----------  oO%*%   ------------",
"--------- o@oo.  $$o -----------",
"--------- X@@@@@@@@X -----------",
"----------          ------------",
"--------------------------------",
"--------------------------------",
"--------------------------------",
"--------------------------------",
"--------------------------------"
};
