/* XPM */
static char *_5a80819217945eee8b3e89f9614f914SfddZF7Ttq6Nxbo2[] = {
/* columns rows colors chars-per-pixel */
"32 32 10 1 ",
"  c None",
". c #2C342A",
"X c #A83431",
"o c #27AE60",
"O c #2ECC71",
"+ c #7BED9F",
"@ c #9F95A0",
"# c #B9B0BA",
"$ c #D3CDD4",
"% c #F1F0FD",
/* pixels */
"                                ",
"                                ",
"                                ",
"                                ",
"                                ",
"                                ",
"                                ",
"                                ",
"                                ",
"                                ",
"                                ",
"               .....            ",
"              .oOOOO.           ",
"             .oOOOOOO.          ",
"            .oO#o%%oo%.         ",
"            .o###.oooo.         ",
"            .oO$$$..X.          ",
"             .o@@@@. X          ",
"              .o###.  XX        ",
"               .o$$$. X         ",
"                .O@@@.          ",
"           .....oO###.          ",
"        ...OOOOOO+$$$.          ",
"       .oooooooo+#@@.           ",
"       .............            ",
"                                ",
"                                ",
"                                ",
"                                ",
"                                ",
"                                ",
"                                "
};
