/* XPM */
static char *_4ca6542a57846e08680b614c98cd9caz7YoNZcfXrTEmU99[] = {
/* columns rows colors chars-per-pixel */
"32 32 10 1 ",
"  c None",
". c #2C342A",
"X c #A83431",
"o c #27AE60",
"O c #2ECC71",
"+ c #7BED9F",
"@ c #9F95A0",
"# c #B9B0BA",
"$ c #D3CDD4",
"% c #F1F0FD",
/* pixels */
"                                ",
"                                ",
"                                ",
"                                ",
"                                ",
"                                ",
"                                ",
"                                ",
"                                ",
"                                ",
"                                ",
"            .....               ",
"           .OOOOo.              ",
"          .OOOOOOo.             ",
"         .%oo%%o#Oo.            ",
"         .oooo.###o.            ",
"          .X..$$$Oo.            ",
"          X .@@@@o.             ",
"        XX  .###o.              ",
"         X .$$$o.               ",
"          .@@@O.                ",
"          .###Oo.....           ",
"          .$$$+OOOOOO...        ",
"           .@@#+oooooooo.       ",
"            .............       ",
"                                ",
"                                ",
"                                ",
"                                ",
"                                ",
"                                ",
"                                "
};
