/* XPM */
static char *result[] = {
/* columns rows colors chars-per-pixel */
"32 32 6 1 ",
"  c #2F2F2E",
". c #54443B",
"X c #7C4E2E",
"o c #99643E",
"O c #B97F56",
"+ c None",
/* pixels */
"++++++++++++++++++++++++++++++++",
"++++++++++++++++++++++++++++++++",
"++++++++++++++++++++++++++++++++",
"++++++++++++++++++++++++++++++++",
"++++++++++++++++++++++++++++++++",
"++++++++++++++++++++++++++++++++",
"++++++++++++++++++++++++++++++++",
"++++++++++++++++++++++++++++++++",
"+++++++++   +++++++++   ++++++++",
"++++++++ OOO +++++++ OOO +++++++",
"++++++++ Xoo +++++++ Xoo +++++++",
"++++++++ Xoo         Xoo +++++++",
"++++++++ XooOOOOOOOOOOoo +++++++",
"++++++++ Xoooooooooooooo +++++++",
"++++++++ Xoo         Xoo +++++++",
"++++++++ Xoo         Xoo +++++++",
"++++++.. XooOOOOOOOOOOoo ..+++++",
"+++++... Xoooooooooooooo ...++++",
"++++.... Xoo         Xoo ....+++",
"++++..   XXX         XXX   ..+++",
"+++++                       ++++",
"++++++                     +++++",
"++++++++                 +++++++",
"+++++++++++           ++++++++++",
"++++++++++++++++++++++++++++++++",
"++++++++++++++++++++++++++++++++",
"++++++++++++++++++++++++++++++++",
"++++++++++++++++++++++++++++++++",
"++++++++++++++++++++++++++++++++",
"++++++++++++++++++++++++++++++++",
"++++++++++++++++++++++++++++++++",
"++++++++++++++++++++++++++++++++"
};
