/* XPM */
static char *result[] = {
/* columns rows colors chars-per-pixel */
"32 32 15 1 ",
"  c #2F2F2E",
". c #32322F",
"X c #3B3B39",
"o c #624023",
"O c #69483A",
"+ c #916451",
"@ c #B29D62",
"# c #E59363",
"$ c #D2BA77",
"% c #9299A4",
"& c #B4B4AE",
"* c #FFD19C",
"= c #DAD9CC",
"- c #F1F0FD",
"; c None",
/* pixels */
";;;;;;;;;;;;;;;;;;;;;;;;;;;;;;;;",
";;;;;;;;;;;;;;;;;;;;;;;;;;;;;;;;",
";;;;;;;;;;;;;;;;;;;;;;;;;;;;;;;;",
";;;;;;;;;;;;;;;;;;;;;;;;;;;;;;;;",
";;;;;;;;;;;;;;;;;;;;;;;;;;;;;;;;",
";;;;;;;;;;;;      ;;;;;;;;;;;;;;",
";;;;;;;;;;; O+OOO+ ;;;;;;;;;;;;;",
";;;;;;;;;; OO+OOOO+ ;;;;;;;;;;;;",
";;;;;;;;;; XXO+OOXX ;;;;;;;;;;;;",
";;;;;;;;; OOOXXXXO++ ;;;;;;;;;;;",
";;;;;;;;; +OOOOOOOO+ ;;;;;;;;;;;",
";;;;;;;;;  ++++++++  ;;;;;;;;;;;",
";;;;;;;;; #        # ;;;;;;;;;;;",
";;;;;;;;; O# -## -#O ;;;;;;;;;;;",
";;;;;;;;;; ##*****# ;;;;;;;;;;;;",
";;;;;;;;;;; ###### ;;;;;;;;;;;;;",
";;;;;;;;;;  &=****= ;;;;;;;;;;;;",
";;;;;;;;; OOO&==*=O+ ;;;;;;;;;;;",
";;;;;;;; OOO++&&&&O++ ;;;;;;;;;;",
";;;;;;; **OOO+&=&=OO+ ;;;;;;;;;;",
";;;;;;; *#* O+&=&=O ** ;;;;;;;;;",
";;;;;;; *  .O+&=&=O #* ;;;;;;;;;",
";;;;;;;; ;;.OOX%%%O  * ;;;;;;;;;",
";;;;;;;;;;;.@$$$$$$ ; ;;;;;;;;;;",
";;;;;;;;;;; @$$ @$$ ;;;;;;;;;;;;",
";;;;;;;;;;; oO ; oO ;;;;;;;;;;;;",
";;;;;;;;;;;;  ;;;  ;;;;;;;;;;;;;",
";;;;;;;;;;;;;;;;;;;;;;;;;;;;;;;;",
";;;;;;;;;;;;;;;;;;;;;;;;;;;;;;;;",
";;;;;;;;;;;;;;;;;;;;;;;;;;;;;;;;",
";;;;;;;;;;;;;;;;;;;;;;;;;;;;;;;;",
";;;;;;;;;;;;;;;;;;;;;;;;;;;;;;;;"
};
