/* XPM */
static char *_f77c13526c4495e8fab87064ad3db0b5OSsTlckDRrqFn1c[] = {
/* columns rows colors chars-per-pixel */
"165 23 190 2 ",
"   c None",
".  c black",
"X  c #0E0000",
"o  c #271E13",
"O  c #292018",
"+  c #29251F",
"@  c #342B25",
"#  c #3E352C",
"$  c #42392D",
"%  c #4E453C",
"&  c #4F473D",
"*  c #504838",
"=  c #534C42",
"-  c #5E5641",
";  c #5D5542",
":  c #5E594C",
">  c #665F52",
",  c #6C634C",
"<  c #6D644D",
"1  c #6D654D",
"2  c #6E654D",
"3  c #6E654E",
"4  c #6F674E",
"5  c #6F664F",
"6  c #6F674F",
"7  c #70684F",
"8  c #6F6750",
"9  c #706750",
"0  c #716850",
"q  c #716851",
"w  c #716951",
"e  c #726950",
"r  c #726951",
"t  c #736A51",
"y  c #716952",
"u  c #726952",
"i  c #736A53",
"p  c #736A54",
"a  c #746B55",
"s  c #746C54",
"d  c #756D56",
"f  c #756E57",
"g  c #766E58",
"h  c #776F59",
"j  c #756E5F",
"k  c #77705A",
"l  c #7A715C",
"z  c #7A735D",
"x  c #7C7460",
"c  c #7D7661",
"v  c #7F7863",
"b  c #81785E",
"n  c #817A61",
"m  c #817965",
"M  c #817967",
"N  c #827A67",
"B  c #837C68",
"V  c #857E6A",
"C  c #867F6C",
"Z  c #8B8163",
"A  c #8B8267",
"S  c #87806C",
"D  c #8A826F",
"F  c #8C8572",
"G  c #8C8573",
"H  c #8D8573",
"J  c #8D8673",
"K  c #8E8673",
"L  c #8D8674",
"P  c #8E8674",
"I  c #8F8875",
"U  c #908975",
"Y  c #908876",
"T  c #908976",
"R  c #918977",
"E  c #918A76",
"W  c #928B77",
"Q  c #948D79",
"!  c #948C7A",
"~  c #958C7A",
"^  c #968E7A",
"/  c #ABA282",
"(  c #ACA38D",
")  c #BBB28F",
"_  c #B3AB93",
"`  c #B5AD95",
"'  c #BCB391",
"]  c #C3B994",
"[  c #C8BF9B",
"{  c #C7BEA3",
"}  c #CDC39E",
"|  c #CBC3A7",
" . c #D2C9A5",
".. c #D8CEA6",
"X. c #D9CFA7",
"o. c #D6CEAA",
"O. c #D2CAAC",
"+. c #D9CFA8",
"@. c #D9D0A7",
"#. c #D9D0A8",
"$. c #D9D0A9",
"%. c #DAD0A8",
"&. c #DBD1A8",
"*. c #DAD0A9",
"=. c #DAD1A9",
"-. c #DDD3AB",
";. c #DFD4AB",
":. c #DED5AC",
">. c #DFD5AD",
",. c #D6CDB0",
"<. c #D8CFB1",
"1. c #D8D0B1",
"2. c #DDD5B1",
"3. c #DAD1B4",
"4. c #DDD4B5",
"5. c #DFD7B8",
"6. c #E0D7B4",
"7. c #E1D9B5",
"8. c #E5DCB8",
"9. c #E6DDB9",
"0. c #E4DCBA",
"q. c #E4DCBB",
"w. c #E6DEBA",
"e. c #E7DEBB",
"r. c #E7DFBB",
"t. c #E6DFBD",
"y. c #E7DFBD",
"u. c #E7DFBE",
"i. c #E7E0BD",
"p. c #E7E0BE",
"a. c #E8E0BC",
"s. c #E8E0BD",
"d. c #E9E0BD",
"f. c #E8E0BE",
"g. c #E9E1BE",
"h. c #E8E0BF",
"j. c #E8E1BF",
"k. c #E9E1BF",
"l. c #EAE1BE",
"z. c #EAE1BF",
"x. c #EAE2BE",
"c. c #EAE2BF",
"v. c #EBE2BF",
"b. c #E9E1C0",
"n. c #EAE1C0",
"m. c #E9E2C1",
"M. c #EAE2C0",
"N. c #EBE3C0",
"B. c #EAE2C1",
"V. c #EBE2C1",
"C. c #EAE3C1",
"Z. c #EBE3C1",
"A. c #EBE3C2",
"S. c #EBE4C2",
"D. c #ECE4C1",
"F. c #ECE4C2",
"G. c #EDE5C2",
"H. c #ECE5C3",
"J. c #EDE5C3",
"K. c #EEE5C3",
"L. c #EEE6C3",
"P. c #EEE7C3",
"I. c #EDE4C4",
"U. c #EEE4C4",
"Y. c #EFE7C4",
"T. c #EFE6C5",
"R. c #EEE7C5",
"E. c #EFE7C5",
"W. c #F0E7C5",
"Q. c #F0E8C5",
"!. c #F1E8C5",
"~. c #F1E9C5",
"^. c #F0E8C6",
"/. c #F1E9C7",
"(. c #F2E9C7",
"). c #F2EAC8",
"_. c #F3EAC8",
"`. c #F3EAC9",
"'. c #F3EBC9",
"]. c #F4ECCA",
"[. c #F5ECCA",
"{. c #F8F0CD",
"}. c #F9F0CD",
"|. c #F9F0CE",
" X c #FBF2CF",
".X c #FDF3D1",
"XX c #FCF4D1",
"oX c #FDF4D1",
"OX c #FDF4D2",
"+X c #FEF5D2",
/* pixels */
"% Y K K Y + : ~ K L L L P P P P P P P P L L P P P P P P P P P P L L P P P P K P P P P P L L P P P P P P P P P P L L P P P P K P P P P P L L P P P P P P P P P P L P P P P P P P P P P P L L P P P P P P P P P P L L L P P P K P P P P P L L P P P P P P P P P P I L L P P P P P P P P P L P P P P P L P P P P P L L L ~ , = Q G L L L I * ",
"Y .X`.`.oX` | oX`.].].].].].[.[.[.[.[.[.].].].].[.[.].].].].[.[.].].].].[.[.].].].].[.[.].].].].[.[.[.[.[.[.[.[.].].].].[.[.].].].].[.[.].].].].[.[.].].].].[.[.].].].].[.[.].].].].[.[.].].].].[.[.].].].].[.[.].].].].[.].].].].].[.[.].].].].[.[.].].].].[.[.].].].].[.[.[.[.[.[.[.[.].].].].[.[.].].].].[.[.].].[..X3.{ XX`.].].].oXY ",
"I {.i.y.V.I.V.g.i.i.i.i.g.u.u.u.u.u.u.g.i.g.i.i.g.u.g.u.u.u.g.u.i.i.i.i.g.u.g.u.u.u.g.u.i.g.i.g.g.u.u.u.u.u.u.g.i.i.i.g.g.u.g.u.u.u.g.u.i.i.i.i.g.u.g.u.u.u.g.u.i.i.i.i.g.u.g.u.u.u.g.u.i.i.i.i.g.u.g.u.u.u.g.u.i.i.i.i.g.u.g.u.u.u.g.u.i.i.i.i.g.u.g.u.u.u.g.u.i.i.i.i.g.u.u.u.u.u.u.g.i.i.g.i.g.u.g.y.u.u.g.u.i.i.i.i.I.I.i.i.i.i.q.Q.Y ",
". ( I.F.i.V.F.g.V.V.C.g.N.N.N.N.g.V.V.N.g.V.V.V.N.N.V.V.N.N.N.N.V.V.V.C.N.N.V.V.v.V.N.N.g.V.V.C.N.N.N.N.V.V.V.N.V.V.V.g.N.N.V.V.N.N.N.N.V.V.C.g.N.N.V.V.N.N.N.N.V.V.C.g.N.N.V.V.N.N.N.N.V.V.C.g.N.N.V.V.N.N.N.N.V.V.V.C.N.N.V.V.N.N.N.N.V.V.C.g.N.N.V.V.N.N.N.N.g.V.V.V.N.N.N.N.V.V.V.N.V.g.V.V.N.N.V.V.N.N.N.N.g.V.V.C.m.V.V.V.C.I.F.XXI ",
"j 5.V.V.V.g.i.V.g.C.V.V.V.C.C.g.N.V.V.g.C.V.g.C.g.V.V.C.N.V.V.g.C.V.g.g.g.V.V.C.V.g.C.V.g.C.V.g.V.C.C.g.g.g.V.V.g.C.V.V.V.C.C.g.N.V.g.V.V.g.C.V.g.V.V.C.N.V.V.g.g.C.V.V.V.C.C.g.N.V.g.V.V.g.C.V.g.V.V.C.N.V.V.g.C.V.g.g.g.V.V.C.N.V.g.V.V.g.C.V.g.V.V.C.N.V.V.g.V.g.C.C.C.g.g.V.g.V.V.g.C.V.g.C.C.g.g.V.N.g.V.V.C.V.g.g.g.V.V.C.g.4.,._ @ ",
"Q {.i.V.V.V.V.V.V.C.g.C.g.g.V.V.g.V.C.g.C.g.V.C.C.C.g.g.V.g.V.V.g.V.C.V.C.C.g.g.V.V.g.V.g.V.C.g.g.g.V.V.V.V.C.g.V.C.g.C.g.g.V.V.V.g.V.V.V.C.g.V.C.C.g.g.V.g.V.V.V.C.g.C.g.g.V.V.V.g.V.V.V.C.g.V.C.C.g.g.V.g.V.V.g.V.C.V.C.C.g.g.V.g.V.V.V.C.g.V.C.C.g.g.V.g.V.V.C.g.V.g.V.V.C.C.g.V.C.g.C.g.V.C.V.V.C.C.V.V.V.g.g.V.C.V.V.C.g.C.y.,.O.<.m ",
"G /.i.C.C.g.V.i.V.g.C.g.C.V.g.C.V.V.V.V.V.V.g.g.V.g.C.V.g.V.g.V.g.C.V.C.V.g.C.V.g.g.C.C.C.C.V.V.C.V.g.C.V.C.V.g.V.g.C.g.C.V.g.C.V.V.g.g.g.g.C.C.V.g.C.V.g.V.g.V.V.g.C.g.C.V.g.C.V.V.g.g.g.g.C.C.V.g.C.V.g.V.g.V.g.C.V.C.V.g.C.V.V.V.g.g.g.g.C.C.V.g.C.V.g.V.g.V.C.V.g.V.g.C.V.g.V.C.V.V.V.V.g.g.g.C.i.C.V.V.V.g.g.C.V.C.V.g.V.g.V.I.F.{.Y ",
"D /.i.g.V.V.V.C.C.g.V.V.C.g.V.C.V.g.g.C.g.C.C.V.V.C.g.V.V.V.g.V.V.C.g.g.V.C.g.V.V.V.V.g.V.g.g.C.C.g.V.C.g.g.V.C.C.g.V.V.C.g.V.C.g.V.V.V.C.V.V.g.V.C.g.V.V.V.g.V.C.g.V.V.C.g.V.C.g.V.V.V.C.V.V.g.V.C.g.V.V.V.g.V.V.C.g.g.V.C.g.V.g.V.V.V.C.V.V.g.V.C.g.V.V.V.g.V.g.V.C.C.g.V.C.g.V.g.g.C.g.C.C.V.g.V.V.V.g.g.V.V.V.C.g.g.V.C.C.g.V.i.i./.S ",
"S Q.V.V.g.C.V.V.g.g.C.V.C.V.g.g.C.g.g.V.g.V.V.C.g.C.V.g.C.C.V.g.C.V.g.g.C.V.g.C.g.V.V.C.V.C.C.g.V.V.g.C.g.C.V.V.g.g.C.V.C.V.g.g.C.g.g.V.g.V.V.C.g.C.V.g.C.C.V.g.g.C.V.V.g.C.V.g.V.C.C.g.C.g.g.V.g.g.C.V.C.V.g.g.C.C.V.g.V.g.C.C.C.g.g.V.g.V.V.C.g.C.V.g.C.C.V.g.V.g.C.C.V.g.C.V.C.g.g.V.g.V.V.C.C.C.V.g.V.g.C.C.V.V.g.C.g.C.V.V.C.i.g.Q.V ",
"B Q.V.i.V.C.g.C.C.V.C.g.g.V.C.V.V.V.C.C.C.C.g.g.g.V.C.g.V.g.V.C.g.V.C.V.C.g.V.C.C.C.g.g.g.g.V.V.g.C.g.V.V.C.g.C.C.V.C.g.g.V.C.V.V.V.C.C.C.C.g.g.g.V.C.g.V.g.V.C.V.C.g.C.g.V.C.g.g.g.V.V.V.V.C.C.C.V.C.g.g.V.C.V.V.g.V.C.C.g.V.g.V.V.C.C.C.C.g.g.g.V.C.g.V.g.V.C.C.g.V.g.V.C.g.V.V.V.C.C.C.C.g.g.V.g.V.C.C.g.V.g.g.C.g.V.V.C.g.C.V.V.V.Q.N ",
"m Q.i.V.V.g.C.g.V.C.V.g.g.C.V.C.g.C.V.g.V.g.C.V.C.C.V.V.g.V.g.C.g.C.V.C.V.V.g.g.V.g.C.V.C.V.g.C.C.g.C.V.V.g.C.g.V.C.V.g.g.C.V.C.g.C.V.g.V.g.C.V.C.C.V.V.g.V.g.C.V.g.C.g.C.C.V.V.C.V.g.C.g.C.V.g.V.C.V.g.g.C.V.C.g.V.g.C.C.V.g.V.g.C.V.g.V.g.C.V.C.C.V.V.g.V.g.C.C.V.g.V.g.g.C.C.g.C.V.g.V.g.C.V.g.V.g.C.C.V.g.V.C.g.C.V.V.g.C.g.V.g.V.F.v ",
"c C.V.V.C.g.V.V.g.g.V.C.V.C.g.g.g.V.C.g.V.C.g.V.V.g.g.C.C.C.g.V.V.C.g.g.g.C.C.V.V.C.g.V.C.g.V.C.V.V.C.g.C.g.V.V.g.g.V.C.V.C.g.g.g.V.C.g.V.C.g.V.V.g.g.C.C.C.g.V.C.g.V.V.V.g.g.C.C.g.V.C.g.V.C.g.g.g.V.C.V.C.g.g.C.C.g.V.g.V.C.C.g.V.C.g.V.C.g.V.V.g.g.C.C.C.g.V.g.V.C.C.C.V.V.g.g.V.C.g.V.C.g.V.C.C.g.V.g.V.C.C.V.V.C.g.C.g.V.V.V.m.V.F.x ",
"z C.V.i.V.V.g.C.C.V.g.C.V.g.C.V.C.C.V.g.V.g.C.C.C.g.g.V.V.V.g.C.g.C.V.V.V.C.C.g.g.g.C.V.C.V.g.g.g.C.V.g.C.V.g.C.C.V.g.C.V.g.C.V.C.C.V.g.V.g.C.C.C.g.g.V.V.V.g.C.V.g.C.C.C.g.g.V.V.V.g.C.g.C.V.V.C.V.g.C.V.g.C.V.V.g.C.V.g.C.V.g.C.C.V.g.V.g.C.C.C.g.g.V.V.V.g.C.C.V.g.g.g.V.V.C.C.C.V.g.V.g.C.C.V.g.C.V.g.C.V.g.g.C.V.g.C.V.g.C.g.V.V.C.l ",
"k C.V.V.i.V.V.C.C.g.V.C.V.C.g.V.V.g.V.C.C.g.V.g.V.V.C.C.g.C.g.V.V.C.g.C.g.g.V.V.C.V.C.g.g.V.C.V.g.V.C.g.C.g.V.C.C.g.V.C.V.C.g.V.V.g.V.C.C.g.V.g.V.V.C.C.g.C.g.V.C.g.V.g.V.V.C.C.g.C.g.V.V.C.g.C.C.g.V.C.V.C.g.V.V.C.g.V.g.V.C.g.V.g.V.C.C.g.V.g.V.V.C.C.g.C.g.V.g.V.C.V.C.C.g.g.V.g.V.C.C.g.V.g.V.C.g.V.g.V.C.g.g.V.C.g.C.g.V.C.C.i.C.c.k ",
"f v.N.g.V.i.C.g.V.V.g.g.g.g.C.C.g.V.g.C.C.V.g.V.g.C.V.g.C.g.C.V.V.g.C.g.C.V.g.C.V.C.V.g.g.C.V.C.C.C.V.V.V.V.g.g.V.V.g.g.g.g.C.C.g.V.g.C.C.V.g.V.g.C.V.g.C.g.C.V.C.V.g.V.g.C.V.g.C.g.C.V.V.g.C.g.V.V.g.g.g.g.C.C.g.g.C.C.C.C.V.V.g.V.g.C.C.V.g.V.g.C.V.g.C.g.C.V.g.C.V.C.V.g.C.V.g.V.g.C.C.V.g.V.g.g.C.C.C.C.V.V.C.C.V.V.V.V.g.g.C.g.C.g.g ",
"f g.V.g.V.V.V.V.g.C.C.V.C.V.V.g.C.C.g.V.g.V.C.C.g.V.C.g.V.V.C.g.C.g.V.V.C.g.V.C.g.g.V.C.V.C.g.C.V.g.g.C.g.C.C.V.g.C.C.V.C.V.V.g.C.C.g.V.g.V.C.C.g.V.C.g.V.V.C.g.g.V.C.C.g.V.C.g.V.V.C.g.C.g.V.V.g.C.C.V.C.V.V.g.C.V.V.g.V.g.g.C.C.C.g.V.g.V.C.C.g.V.C.g.V.V.C.g.V.C.g.g.V.C.g.V.C.C.g.V.g.V.C.C.C.V.V.g.V.g.g.C.V.g.g.C.g.C.C.V.V.g.C.c.g ",
"a g.V.V.C.g.C.i.C.g.g.V.C.g.C.i.V.V.g.C.V.V.V.C.V.g.C.V.g.g.C.V.i.C.V.C.V.g.g.C.V.V.g.C.V.i.V.i.V.C.C.g.V.V.V.g.V.C.C.g.i.V.V.V.V.g.C.V.g.g.C.V.V.g.V.V.V.g.C.V.g.C.C.V.g.g.C.V.V.V.V.C.V.g.g.C.g.V.i.V.V.C.V.V.g.V.V.C.g.V.i.V.V.V.g.C.V.V.g.i.C.C.V.g.C.C.V.g.V.V.i.V.g.C.C.V.g.g.C.V.V.i.C.g.g.V.V.C.g.V.i.V.C.g.g.V.g.V.V.C.V.g.C.g.f ",
"p i.C.i.V.V.V.V.V.V.C.C.V.V.V.V.g.C.g.V.i.V.i.C.V.C.g.V.C.V.C.g.V.V.V.g.V.C.V.V.g.C.g.V.V.g.V.V.g.g.V.V.g.g.V.V.g.g.V.V.C.V.g.g.V.C.g.V.C.V.C.g.V.g.V.g.V.C.g.V.g.V.g.V.C.V.C.g.i.V.i.C.V.C.V.V.C.C.C.V.g.C.i.V.C.C.g.g.C.V.C.V.g.C.g.V.g.V.V.V.g.V.C.g.V.g.V.C.g.V.C.V.g.V.C.i.C.V.C.g.V.V.C.V.C.C.g.C.C.V.C.V.V.V.C.V.C.C.g.g.V.g.V.g.y ",
"y i.C.V.g.C.V.V.g.C.i.i.V.i.V.V.g.V.C.V.V.V.g.V.g.V.g.C.V.C.V.g.V.g.V.V.g.C.V.C.g.V.C.V.V.V.g.V.C.V.C.V.C.V.V.V.C.V.C.V.V.V.V.V.g.V.i.C.V.C.V.g.V.V.V.V.g.C.V.V.C.V.g.C.V.C.V.g.V.V.V.V.g.V.g.C.V.g.V.g.C.V.V.i.V.g.C.V.V.g.V.V.g.V.C.V.V.V.V.V.C.V.V.V.g.V.g.C.V.V.V.V.C.V.g.V.V.C.V.g.V.i.V.V.V.g.V.i.V.g.V.g.g.C.C.V.V.g.V.V.q.i.C.g.y ",
"y w.V.i.V.i.g.g.V.F.2. .C.V.g.i.g.V.g.i.i.V.g.g.g.V.i.V.i.i.V.g.V.g.g.i.i.V.i.g.i.V.i.g.g.V.g.g.g.g.i.V.i.g.g.g.g.i.i.V.g.i.g.g.g.V.V.g.g.g.V.i.u.V.h.V.i.V.g.g.i.V.i.V.g.i.V.g.g.g.g.g.g.V.i.C.C.C.V.g.g.g.V.i.V.g.V.i.V.i.i.g.g.V.i.g.g.g.g.g.g.g.i.V.g.V.g.g.g.g.g.i.i.V.g.V.g.i.V.g.V.g.g.i.V.g.V.g.V.i.V.i.V.i.i.g.V.g.g.C.} 7.C.w.y ",
"9 a.F.g.V.V.V.V.V.Q.' / /.g.V.V.C.V.N.V.V.V.V.V.V.V.V.V.C.V.V.V.V.V.V.V.V.V.V.V.C.C.V.V.V.V.V.V.V.V.V.V.V.V.V.V.C.V.V.V.V.V.V.V.N.N.V.V.V.V.V.V.N.N.V.N.N.N.N.N.V.V.V.V.V.V.V.V.V.V.V.V.V.V.V.g.o.V.C.V.V.V.V.V.V.V.V.V.V.V.V.V.C.V.V.V.V.V.V.V.V.V.V.V.V.V.V.V.V.V.V.V.V.V.m.V.V.V.V.V.V.V.V.V.V.V.m.V.V.V.V.V.V.V.V.V.V.g.F.7.Z 6.W.9.9 ",
"s @.=.@.@.@.=.@.=.;.b v ;.=.@.=.=.=.@.@.=.+.=.+.@.=.@...=.=.=.#.@.=.=.X.#...=.X.=.=.X.=.X.=.=.@.=.=.=.@.@.@.=.X.=.=.X.=.@.X.@.=.+.@.@.X.=.=.=.@.+.+.+.+.+.+.+.+.X.=.@.X.=.=.=.@.+.=.=.+.#...;.} A @.=.@.#.@.#.#.=.@.=.#.@.@.#.#.=.=.X.=...=.@.=.#.#.@.X.=.=.=.#.=.@.X.=.X.=.@.=.=.#.=.@.=.@.@.X.#.=.#.@.@.@.=.@.=.@.#.#.@...:.' o ] >.X.s ",
"$ y 3 3 3 3 3 3 4 4 O # 7 3 3 3 3 3 3 3 3 3 3 3 3 3 3 3 3 3 3 3 3 3 3 3 1 3 3 3 3 3 3 3 3 3 3 3 3 3 3 3 3 3 3 3 3 3 3 3 3 3 3 3 3 3 3 3 3 3 3 3 3 3 3 3 9 3 3 3 3 3 3 3 3 3 3 3 3 3 3 3 3 1 y - X , 3 3 3 3 3 3 3 3 3 3 3 3 3 3 3 3 3 3 3 3 3 3 3 3 3 3 3 3 3 3 3 3 3 3 3 3 3 3 3 3 3 3 3 3 3 3 3 3 3 3 3 3 3 3 3 3 3 3 3 3 y *   - 7 7 $ "
};
