/* XPM */
static char *result[] = {
/* columns rows colors chars-per-pixel */
"15 17 2 1 ",
"  c white",
". c None",
/* pixels */
".....         .",
"..             ",
".              ",
"               ",
"               ",
"               ",
".              ",
".              ",
".           ...",
"....        ...",
".....        ..",
"...           .",
"...           .",
"...           .",
".....        ..",
".....   .......",
".....  ........"
};
