/* XPM */
static char *result[] = {
/* columns rows colors chars-per-pixel */
"15 17 8 1 ",
"  c #323821",
". c #C43F31",
"X c #88A043",
"o c #9FBC4D",
"O c #D8B78F",
"+ c #FFD7A8",
"@ c white",
"# c None",
/* pixels */
"##     ########",
"#  XXXX       #",
" . XXXXooooooo ",
" . XXXXXooXXXo ",
"   X@ @Xo ooo  ",
"# . @ @Xoooooo ",
"# . @@@Xoooooo ",
"#   XXXXoooooo ",
"### XXXXXo     ",
"#### XO++++ ###",
"##   XO++++ ###",
"## ooXO++++ ###",
"##  XXXoOOo ###",
"###  Xooooo ###",
"#### Xo  Xo ###",
"#### X # X ####",
"####  ##  #####"
};
